<?xml version="1.0" encoding="UTF-8"?>
<svg id="Layer_1" data-name="Layer 1" xmlns="http://www.w3.org/2000/svg" viewBox="0 0 301.42 81.83">
  <defs>
    <style>
      .cls-1 {
        fill: #101515;
        fill-rule: evenodd;
      }

      .cls-2 {
        fill: #231f20;
        font-family: URWGeometric-Regular, 'URW Geometric';
        font-size: 25.42px;
      }
    </style>
  </defs>
  <g>
    <path class="cls-1" d="M224.43,46.71v-8.73c-.51-.06-1.02-.1-1.52-.1-1.56,0-3.01.41-4.09,1.57-.94,1.06-1.46,2.28-1.46,3.72,0,1.21.37,2.28,1.2,3.18.82.89,1.78,1.35,2.97,1.35,1.07,0,2.04-.4,2.9-.99ZM56.6,45.24v-8.74c-.5-.06-1.02-.1-1.52-.1-1.56,0-3.01.41-4.09,1.57-.95,1.07-1.46,2.29-1.46,3.72,0,1.22.38,2.28,1.21,3.18.8.89,1.76,1.36,2.96,1.36,1.07,0,2.04-.38,2.9-.98ZM15.27,29.09c1.56.61,3.19.89,4.87.89,2.38,0,4.84-.52,6.5-2.36,1.52-1.72,2.17-3.78,2.17-6.05s-.62-4.46-2.17-6.22c-1.69-1.93-4.3-2.43-6.76-2.43-1.09,0-2.68.1-3.61.73-.97.69-.99,6.8-.99,7.88v7.56ZM271.7,25.77c2.8-1.76,5.9-2.85,9.25-2.85,1.52,0,2.96.35,4.28,1.13,1.09.65,2.01,1.53,2.43,2.77.44,1.35.49,3.22.49,4.64v19.02l-.48.02c-1.07.05-2.13.12-3.2.21l-.66.07.12-.65c.41-2.26.5-4.67.5-6.97v-10.76c0-1.15.01-2.83-.24-3.94-.17-.7-.63-1.21-1.19-1.63-.74-.53-1.67-.71-2.56-.71-2.48,0-5.31,1.2-7.54,2.34.09.57.07,1.38.07,1.76v12.43c0,1.47.13,3.46.87,4.78.64,1.1,1.82,1.62,3.01,1.86l.4.08v1.61l-.54-.05c-2.28-.18-4.75-.43-7.03-.43h-.5v-20.45c0-1.83-.26-4.34-1.94-5.45l-1.52-1.02,1.82.1c1.73.1,3.18.73,4.15,2.1ZM252.64,25.07c2.45-1.21,5.2-2.16,7.92-2.16,2,0,4.21.41,5.6,1.98,1.32,1.57,1.72,3.63,1.72,5.62v19.98h-.49c-2.28,0-4.61.2-6.88.43l-.55.06v-1.6l.37-.1c1.21-.35,2.4-.96,3.03-2.11.7-1.29.8-3.26.8-4.7v-11.47c0-1.15-.12-2.76-.84-3.72-.67-.89-2.32-.99-3.33-.99-2.42,0-5.21,1.1-7.41,2.16v14.25c0,1.37.13,3.18.84,4.39.66,1.18,1.98,1.81,3.2,2.19l.36.11v1.6l-.56-.07c-2.33-.31-4.7-.43-7.05-.43h-.5v-26.76l.44-.06c.95-.11,1.93-.2,2.87-.38l.66-.13-.07.67c-.05.42-.1.83-.13,1.25ZM247.44,23.69v26.79h-.48c-2.24.05-4.54.14-6.76.44l-.56.07v-1.58l.33-.12c1.15-.38,2.48-1.04,3.06-2.17.65-1.27.73-3.32.73-4.71v-10.85c0-1.45-.12-3.39-.84-4.69-.61-1.11-1.7-1.7-2.91-2l-.37-.1v-1.62l.6.12c.5.11,1.38.11,1.89.14,1.62.1,3.22.17,4.84.24l.47.02ZM289.58,50.49v-19.25c0-1.21-.04-3.08-.44-4.23-.32-.92-1.05-1.7-1.8-2.31l-1.37-1.1,1.75.23c1.61.21,3.31.75,4.32,2.11,1.04,1.44,1.22,3.72,1.22,5.44v10.8c0,1.52.11,3.74.87,5.11.65,1.16,1.82,1.72,3.08,2l.4.08v1.62l-.55-.06c-2.3-.24-4.66-.43-6.99-.43h-.49ZM224.43,34.92v-3.21c0-1.28-.19-2.74-.95-3.81-.82-1.06-2.57-1.23-3.81-1.23-3.12,0-5.71,1.19-7.81,3.49l-.33.38-1.56-1.5.19-.33c1.04-1.76,2.65-3.04,4.46-3.97,1.95-.96,4.04-1.46,6.22-1.46,5.08,0,7.27,3.01,7.27,7.9v19.29l-.48.02c-.88.03-1.81.14-2.66.41l-.69.22.08-1.44c-1.07.82-2.31,1.25-3.73,1.25-2.08,0-3.81-.84-5.16-2.42-1.36-1.55-2.07-3.33-2.07-5.39,0-2.33.86-4.3,2.53-5.92,1.79-1.78,4.07-2.47,6.56-2.47.65,0,1.31.07,1.95.2ZM227.42,24.15c1.67.32,3.58.98,4.59,2.45,1.08,1.58,1.21,4.41,1.21,6.26v11.18c0,1.11.09,2.87.72,3.84.56.91,2.12,1.26,3.09,1.4l.43.06v1.62l-7.96-.49v-19.27c0-1.18-.05-2.9-.5-4-.41-.91-1.13-1.61-1.95-2.14l-2.17-1.4,2.54.49ZM214.07,37.09c-1.4,1.75-2.17,3.72-2.17,5.96,0,2.46.83,4.54,2.66,6.21l1.4,1.27-1.86-.42c-1.59-.36-2.98-1.18-4.13-2.33-1.36-1.26-1.94-2.88-1.94-4.71,0-3.62,2.19-5.72,5.5-6.77l1.56-.49-1.02,1.28ZM164.63,23.69l12.38,24.5-1.49,2.99h-.97l-10.33-20.3c-.75-1.48-1.69-3.1-2.84-4.3-.9-.9-2-1.45-3.25-1.7l-.4-.08v-1.56l.53.03c2.02.14,4.05.26,6.08.4l.29.02ZM183.51,35.28l-5.68,11.32-11.66-22.9.78-.04c2.07-.1,4.33-.14,6.4-.4l.55-.06v1.53l-.33.12c-.77.26-1.53.72-1.53,1.63,0,.78.68,2.17,1.03,2.84l4.77,9.27,3.64-7.27-1.04-2.04c-1.08-2.05-2.6-3.73-4.85-4.43l-.35-.11v-1.55l.55.06c1.85.21,3.69.33,5.54.4h.3s12.37,24.56,12.37,24.56l-1.48,2.96h-1.04l-7.96-15.9ZM194.77,38.35l3.34-6.62c.6-1.21,1.22-2.78,1.22-4.16,0-1.68-.91-2.46-2.53-2.68l-.43-.07v-1.59l.54.05c1.94.17,4.09.4,6.04.4s3.89-.19,5.77-.4l.67-.06-.29,1.57-.3.08c-3.07.86-4.97,3.36-6.24,6.15-.13.29-.26.56-.41.84l-7.39,14.77-11.57-22.95h.82c2.56,0,5.18-.19,7.73-.4l.54-.03v1.56l-.38.08c-1.15.26-2.47.78-2.47,2.16,0,.92.61,2.25,1.03,3.06l4.3,8.26ZM150.51,43.23c.28-1.23.48-2.54.48-3.81,0-3.19-1.1-5.98-3.12-8.44-2.82-3.48-10.44-5.53-14.58-6.5-2.97-.68-7.27-1.82-9.74-3.68-2.11-1.57-2.94-3.85-2.94-6.42,0-3.3,1.55-5.79,4.24-7.62,3.35-2.25,8.09-2.76,12.03-2.76,5.29,0,10.44,1.16,15.35,3.08l.35.14-.02.37c-.05.5-.13,1.13-.13,1.63,0,1.61.1,3.21.25,4.82.14,1.91.17,3.84.17,5.74v.5h-1.7l-.13-.33c-1.33-3.55-3.5-6.41-6.75-8.38-2.83-1.73-5.96-2.79-9.3-2.79-2.25,0-4.46.4-6.48,1.43-1.58.86-2.59,2.11-2.59,3.96,0,1.37.68,2.29,1.86,2.94,1.92,1.08,5.53,1.84,7.68,2.3,4.66.98,12.57,2.96,15.87,6.69,2.19,2.46,3.67,5.36,3.67,8.7s-1.74,6.32-3.57,8.82l-1.4,1.92.52-2.33ZM116.69,47.49c0-2.16.01-4.51-.24-6.65-.13-1.34-.19-2.68-.19-4.04,0-1.19.07-2.39.13-3.56l.02-.48h1.77l.11.35c1.18,3.67,3.14,6.83,6,9.41,2.55,2.26,5.53,3.73,8.98,3.73,2.35,0,4.55-.54,6.5-1.89,1.44-1.04,2.53-2.42,2.53-4.27s-1.01-3.19-2.56-4.15c-2.62-1.6-7.3-2.62-10.29-3.25-3.85-.84-8.3-2.24-11.33-4.85-2.53-2.17-3.85-4.91-3.85-8.25,0-2.67.94-5.06,2.52-7.19l1.22-1.64-.32,2.02c-.16.92-.23,1.85-.23,2.78,0,2.04.62,3.86,1.75,5.55,1.17,1.74,2.78,2.99,4.71,3.81,3.11,1.37,7.05,2.33,10.34,3.13,3.33.8,7.57,2.09,10.32,4.21,2.39,1.83,3.32,4.45,3.32,7.41,0,3.44-1.44,6.21-4.11,8.34-3.19,2.5-7.62,3.14-11.55,3.14-5.13,0-10.44-1.42-15.22-3.19l-.33-.12v-.35ZM75.07,25.41c-.73-1.16-1.99-1.74-3.3-2.02l-.4-.08v-1.63l.6.12c.68.13,1.58.17,2.29.2,1.61.09,3.22.13,4.83.18l.48.02v26.8h-.49c-2.17.04-4.98.02-7.12.43l-.59.11v-1.61l.32-.12c1.19-.43,2.87-1.17,3.5-2.33.74-1.36.82-3.95.82-5.45v-9.34c0-1.54-.12-3.93-.95-5.28ZM56.6,33.44v-3.21c0-1.28-.19-2.73-.95-3.8-.82-1.08-2.56-1.25-3.8-1.25-3.13,0-5.72,1.18-7.81,3.49l-.35.38-1.56-1.5.2-.33c1.03-1.76,2.64-3.05,4.45-3.97,1.97-.96,4.04-1.46,6.22-1.46,5.08,0,7.27,3.01,7.27,7.9v19.31h-.47c-.89.06-1.82.17-2.67.43l-.68.2.07-1.43c-1.07.8-2.31,1.24-3.73,1.24-2.09,0-3.81-.83-5.16-2.42-1.36-1.55-2.07-3.33-2.07-5.39,0-2.33.87-4.3,2.54-5.92,1.77-1.77,4.06-2.47,6.54-2.47.66,0,1.3.07,1.95.2ZM59.58,22.66c1.67.33,3.58.99,4.59,2.46,1.08,1.58,1.21,4.41,1.21,6.26v11.19c0,1.1.1,2.85.72,3.83.56.92,2.12,1.26,3.09,1.4l.43.06v1.62l-7.96-.49v-19.27c0-1.19-.05-2.9-.5-4-.41-.91-1.13-1.59-1.95-2.13l-2.17-1.4,2.54.49ZM46.24,35.6c-1.4,1.75-2.17,3.72-2.17,5.96,0,2.46.83,4.56,2.66,6.21l1.4,1.27-1.86-.42c-1.59-.36-2.98-1.18-4.13-2.33-1.36-1.26-1.93-2.87-1.93-4.71,0-3.62,2.19-5.72,5.49-6.77l1.57-.49-1.03,1.28ZM15.27,32.84v5.74c0,2.07.18,4.91,1.27,6.73.86,1.52,2.24,2.25,3.94,2.48l.43.05v1.68l-.56-.08c-1.22-.18-2.49-.25-3.73-.31l-2.16-.12h-3.13V9.84h.5c.45,0,.92,0,1.38-.04,1.33-.05,2.65-.12,3.95-.25.95-.11,1.89-.14,2.85-.14,3.58,0,7.34.77,9.86,3.52,2.19,2.51,3.13,5.51,3.13,8.82s-.99,6.32-3.45,8.62c-2.47,2.35-5.56,3.28-8.93,3.28-1.83,0-3.63-.29-5.37-.81ZM9.69,9.85v39.15h-1.7c-2.24,0-4.59.23-6.82.43l-.55.05v-1.64l.44-.05c1.29-.16,2.34-.98,3.14-1.97,1.37-1.63,1.49-5.67,1.49-7.68v-17.64c0-1.97-.11-5.12-1.07-6.89-.75-1.43-2.11-2.18-3.63-2.58l-.37-.08v-1.58l.54.04c2.67.19,5.36.37,8.04.43h.49ZM30.85,31.29c2.54-2.61,3.81-5.72,3.81-9.36,0-3.82-1.26-7.14-3.82-9.98l-1.45-1.6,2.02.8c4.73,1.91,7.58,5.24,7.58,10.45s-2.94,8.52-7.57,10.5l-2.3.98,1.74-1.79Z"/>
    <path class="cls-1" d="M81.25,48.51v-26.25l.42-.02h.1c.08,0,.2-.01.33-.02.12,0,.24-.02.35-.02.6-.07,1.29-.18,2.04-.34l.61-.13-.08.62v.06c-.02.12-.05.26-.06.42h0c-.01.16-.04.32-.05.52-.06.67-.11,1.51-.14,2.5l.23-.26c.31-.37.62-.73.95-1.08,1.62-1.77,2.87-2.66,3.79-2.66.36,0,.85.1,1.48.29.18.05.4.12.64.21.47.17.98.36,1.55.6h.01c.2.1.4.17.59.24.19.09.36.16.52.21.82.31,1.39.45,1.72.45.27,0,.56-.1.89-.3.35-.23.73-.56,1.14-1.03v-.02s.11-.1.11-.1h.01s.01-.02.01-.02c.03-.05.1-.11.18-.21l.17-.17.21-.23.29.13.84.4.38.18-.17.4c-.61,1.35-1.31,2.4-2.11,3.09-.83.72-1.76,1.09-2.79,1.09h0c-.36-.01-.86-.12-1.52-.33l-.31-.11c-.55-.2-1.22-.47-1.99-.81-.36-.16-.67-.28-.94-.36-.25-.07-.44-.11-.6-.11-.49,0-1.02.17-1.56.5-.26.16-.53.35-.79.58h.25c.38,0,.91.11,1.58.33.64.21,1.41.53,2.33.94.62.26,1.18.47,1.63.61.43.13.77.19,1.02.19.16,0,.31-.02.47-.07.15-.05.32-.13.5-.23l1.94-1.19-1.37,1.82h-.01c-.18.24-.35.44-.52.62-.17.19-.33.37-.52.53-.92.87-1.83,1.31-2.74,1.31h-.01c-.3,0-.68-.07-1.14-.23h-.01l-.21-.07h0c-.39-.14-.83-.33-1.32-.57h-.02c-.19-.1-.41-.21-.66-.33-.17-.08-.37-.17-.59-.26-.94-.4-1.61-.6-2.01-.6-.26,0-.52.07-.77.2-.25.13-.49.33-.76.59v10.82c0,1.2.1,2.24.29,3.09.19.84.47,1.52.84,2.05.36.5.83.92,1.4,1.22.59.33,1.3.54,2.12.66l.38.05v1.52l-.48-.05c-1.4-.14-2.75-.25-4-.32-1.26-.07-2.45-.11-3.6-.11h-.44v-.43Z"/>
    <path class="cls-1" d="M288,10.29h.9c1.26,0,2.05-.05,2.36-.14.3-.1.54-.26.72-.52.18-.24.28-.52.28-.83s-.09-.58-.26-.8c-.17-.24-.42-.41-.74-.52-.31-.1-1.1-.14-2.35-.14h-.9v2.95ZM285.8,16.45V5.62h2.19c2.06,0,3.21,0,3.46.02.73.06,1.29.21,1.7.43.41.23.74.57,1.01,1.04.28.47.41.98.41,1.56,0,.78-.25,1.44-.77,2-.5.55-1.22.9-2.14,1.03.32.12.57.26.75.41.18.14.42.42.73.83.08.11.35.55.8,1.32l1.28,2.19h-2.72l-.91-1.76c-.61-1.19-1.11-1.93-1.52-2.23-.4-.31-.9-.47-1.51-.47h-.58v4.46h-2.19ZM290.43,2.78c-1.41,0-2.75.36-4.04,1.06-1.29.69-2.3,1.71-3.04,3.02-.75,1.32-1.12,2.7-1.12,4.14s.36,2.79,1.08,4.09c.73,1.3,1.74,2.31,3.03,3.04,1.29.73,2.66,1.09,4.09,1.09s2.78-.36,4.07-1.09c1.29-.73,2.3-1.74,3.03-3.04.73-1.29,1.09-2.66,1.09-4.09s-.37-2.82-1.11-4.14c-.73-1.31-1.75-2.33-3.04-3.02-1.29-.7-2.65-1.06-4.04-1.06ZM290.41.78c1.75,0,3.43.44,5.03,1.32,1.62.87,2.88,2.13,3.8,3.76.91,1.63,1.38,3.34,1.38,5.13s-.46,3.47-1.36,5.08c-.9,1.6-2.16,2.86-3.77,3.77-1.61.9-3.31,1.34-5.08,1.34s-3.46-.44-5.08-1.34c-1.6-.91-2.86-2.17-3.77-3.77-.9-1.61-1.34-3.31-1.34-5.08s.46-3.5,1.38-5.13c.91-1.63,2.18-2.89,3.79-3.76,1.6-.87,3.28-1.32,5.03-1.32Z"/>
  </g>
  <text class="cls-2" transform="translate(57.6 80.03)"><tspan x="0" y="0">JEANS &amp; CASUAL</tspan></text>
</svg>